<?xml version="1.0" encoding="UTF-8"?>
<!DOCTYPE svg PUBLIC "-//W3C//DTD SVG 1.1//EN" "http://www.w3.org/Graphics/SVG/1.1/DTD/svg11.dtd">
<svg xmlns="http://www.w3.org/2000/svg" version="1.1" width="365px" height="223px" style="shape-rendering:geometricPrecision; text-rendering:geometricPrecision; image-rendering:optimizeQuality; fill-rule:evenodd; clip-rule:evenodd" xmlns:xlink="http://www.w3.org/1999/xlink">
<g><path style="opacity:1" fill="#fafcfc" d="M -0.5,-0.5 C 121.167,-0.5 242.833,-0.5 364.5,-0.5C 364.5,73.8333 364.5,148.167 364.5,222.5C 242.833,222.5 121.167,222.5 -0.5,222.5C -0.5,148.167 -0.5,73.8333 -0.5,-0.5 Z"/></g>
<g><path style="opacity:1" fill="#012662" d="M 237.5,196.5 C 237.5,187.5 237.5,178.5 237.5,169.5C 248.679,169.828 259.679,169.495 270.5,168.5C 272.371,168.141 273.871,167.141 275,165.5C 275.667,159.167 275.667,152.833 275,146.5C 273.871,144.859 272.371,143.859 270.5,143.5C 259.679,142.505 248.679,142.172 237.5,142.5C 237.5,135.833 237.5,129.167 237.5,122.5C 250.011,122.829 262.345,122.495 274.5,121.5C 276.371,121.141 277.871,120.141 279,118.5C 279.667,112.167 279.667,105.833 279,99.5C 278.097,98.2986 276.931,97.4652 275.5,97C 255.167,96.3333 234.833,96.3333 214.5,97C 213.069,97.4652 211.903,98.2986 211,99.5C 210.5,138.165 210.333,176.832 210.5,215.5C 205.156,215.666 199.823,215.499 194.5,215C 200.565,209.147 203.731,201.981 204,193.5C 204.667,179.5 204.667,165.5 204,151.5C 202.992,149.741 201.492,148.574 199.5,148C 186.5,147.333 173.5,147.333 160.5,148C 159.421,148.956 158.255,149.789 157,150.5C 156.333,157.167 156.333,163.833 157,170.5C 157.708,171.381 158.542,172.047 159.5,172.5C 165.31,173.49 171.31,173.823 177.5,173.5C 177.5,179.5 177.5,185.5 177.5,191.5C 177.318,194.703 175.652,196.536 172.5,197C 165.253,197.812 158.086,197.646 151,196.5C 150.333,171.833 150.333,147.167 151,122.5C 157.721,120.012 164.554,119.845 171.5,122C 173.848,122.346 175.681,123.513 177,125.5C 177.333,128.5 177.667,131.5 178,134.5C 178.583,136.002 179.416,137.335 180.5,138.5C 187.45,139.63 194.45,139.797 201.5,139C 203.888,136.694 204.888,133.861 204.5,130.5C 204.499,109.667 194.165,98.1673 173.5,96C 167.175,95.5005 160.842,95.3338 154.5,95.5C 153.167,95.5 151.833,95.5 150.5,95.5C 150.5,67.8333 150.5,40.1667 150.5,12.5C 150.859,10.629 151.859,9.12901 153.5,8C 220.833,7.33333 288.167,7.33333 355.5,8C 356.333,8.83333 357.167,9.66667 358,10.5C 358.667,77.5 358.667,144.5 358,211.5C 357.5,213.333 356.333,214.5 354.5,215C 330.836,215.5 307.169,215.667 283.5,215.5C 283.666,210.489 283.499,205.489 283,200.5C 281.786,198.951 280.286,197.785 278.5,197C 264.837,196.5 251.171,196.333 237.5,196.5 Z"/></g>
<g><path style="opacity:1" fill="#788cab" d="M 150.5,12.5 C 150.5,40.1667 150.5,67.8333 150.5,95.5C 151.833,95.5 153.167,95.5 154.5,95.5C 153.081,96.4511 151.415,96.7845 149.5,96.5C 149.169,68.3284 149.502,40.3284 150.5,12.5 Z"/></g>
<g><path style="opacity:1" fill="#062863" d="M 71.5,125.5 C 71.5,127.167 71.5,128.833 71.5,130.5C 66.8333,130.5 62.1667,130.5 57.5,130.5C 57.929,124.523 55.5956,120.023 50.5,117C 44.2506,115.464 37.9172,115.13 31.5,116C 26.7938,117.105 23.6271,119.938 22,124.5C 20.8589,131.084 21.5256,137.417 24,143.5C 25.7309,145.617 27.8976,147.117 30.5,148C 39.0587,149.931 47.7254,151.264 56.5,152C 69.1909,157.204 75.5242,166.704 75.5,180.5C 75.8399,190.174 73.6732,199.174 69,207.5C 64.173,212.33 58.3397,215.163 51.5,216C 42.7704,216.876 34.1037,216.542 25.5,215C 12.5872,210.044 5.92053,200.544 5.5,186.5C 10.5,186.5 15.5,186.5 20.5,186.5C 20.7117,192.762 23.3784,197.595 28.5,201C 55.6231,208.208 65.7898,198.374 59,171.5C 55.6031,167.051 51.1031,164.551 45.5,164C 36.1167,163.567 27.1167,161.567 18.5,158C 9.95157,151.563 5.95157,142.896 6.5,132C 6.63842,117.216 13.6384,107.549 27.5,103C 38.4122,101.693 49.0788,102.693 59.5,106C 66.5799,110.585 70.5799,117.085 71.5,125.5 Z"/></g>
<g><path style="opacity:1" fill="#052763" d="M 147.5,102.5 C 159.613,101.964 171.613,102.797 183.5,105C 190.944,108.036 195.444,113.536 197,121.5C 197.499,125.486 197.666,129.486 197.5,133.5C 193.167,133.5 188.833,133.5 184.5,133.5C 184.999,126.737 182.666,121.237 177.5,117C 166.631,113.397 155.964,113.73 145.5,118C 142.769,120.626 140.936,123.793 140,127.5C 139.833,138.167 139.667,148.833 139.5,159.5C 139.375,171.554 139.875,183.554 141,195.5C 142.819,200.336 146.319,203.169 151.5,204C 159.548,204.775 167.548,204.442 175.5,203C 180.971,201.186 183.804,197.353 184,191.5C 184.5,183.173 184.666,174.84 184.5,166.5C 177.167,166.5 169.833,166.5 162.5,166.5C 162.5,162.5 162.5,158.5 162.5,154.5C 174.5,154.5 186.5,154.5 198.5,154.5C 198.832,169.533 198.332,184.533 197,199.5C 192.363,211.418 183.53,217.251 170.5,217C 158.607,218.843 147.273,217.176 136.5,212C 129.996,207.152 126.496,200.652 126,192.5C 125.333,169.833 125.333,147.167 126,124.5C 128.681,112.653 135.848,105.32 147.5,102.5 Z"/></g>
<g><path style="opacity:1" fill="#002561" d="M 92.5,103.5 C 97.1667,103.5 101.833,103.5 106.5,103.5C 106.5,141.167 106.5,178.833 106.5,216.5C 101.833,216.5 97.1667,216.5 92.5,216.5C 92.5,178.833 92.5,141.167 92.5,103.5 Z"/></g>
<g><path style="opacity:1" fill="#354b7d" d="M 273.5,103.5 C 254.833,103.5 236.167,103.5 217.5,103.5C 217.5,140.833 217.5,178.167 217.5,215.5C 217.167,215.5 216.833,215.5 216.5,215.5C 216.5,177.833 216.5,140.167 216.5,102.5C 235.674,102.17 254.674,102.503 273.5,103.5 Z"/></g>
<g><path style="opacity:1" fill="#012561" d="M 273.5,103.5 C 273.5,107.5 273.5,111.5 273.5,115.5C 259.167,115.5 244.833,115.5 230.5,115.5C 230.5,126.833 230.5,138.167 230.5,149.5C 243.5,149.5 256.5,149.5 269.5,149.5C 269.5,153.833 269.5,158.167 269.5,162.5C 256.5,162.5 243.5,162.5 230.5,162.5C 230.5,175.833 230.5,189.167 230.5,202.5C 245.658,203.496 260.991,203.83 276.5,203.5C 276.5,207.5 276.5,211.5 276.5,215.5C 256.833,215.5 237.167,215.5 217.5,215.5C 217.5,178.167 217.5,140.833 217.5,103.5C 236.167,103.5 254.833,103.5 273.5,103.5 Z"/></g>
<g><path style="opacity:1" fill="#536b94" d="M 274.5,121.5 C 262.345,122.495 250.011,122.829 237.5,122.5C 237.5,129.167 237.5,135.833 237.5,142.5C 248.679,142.172 259.679,142.505 270.5,143.5C 259.167,143.5 247.833,143.5 236.5,143.5C 236.5,136.167 236.5,128.833 236.5,121.5C 249.167,121.5 261.833,121.5 274.5,121.5 Z"/></g>
<g><path style="opacity:1" fill="#7b8dac" d="M 71.5,125.5 C 72.4614,127.265 72.7947,129.265 72.5,131.5C 67.3054,131.821 62.3054,131.487 57.5,130.5C 62.1667,130.5 66.8333,130.5 71.5,130.5C 71.5,128.833 71.5,127.167 71.5,125.5 Z"/></g>
<g><path style="opacity:1" fill="#46618c" d="M 270.5,168.5 C 259.679,169.495 248.679,169.828 237.5,169.5C 237.5,178.5 237.5,187.5 237.5,196.5C 236.506,187.348 236.173,178.015 236.5,168.5C 247.833,168.5 259.167,168.5 270.5,168.5 Z"/></g>
<g><path style="opacity:1" fill="#798cac" d="M 159.5,172.5 C 165.833,172.5 172.167,172.5 178.5,172.5C 178.823,179.022 178.49,185.355 177.5,191.5C 177.5,185.5 177.5,179.5 177.5,173.5C 171.31,173.823 165.31,173.49 159.5,172.5 Z"/></g>
<g><path style="opacity:1" fill="#536a93" d="M 230.5,202.5 C 246.167,202.5 261.833,202.5 277.5,202.5C 277.5,207.167 277.5,211.833 277.5,216.5C 256.993,216.83 236.66,216.497 216.5,215.5C 216.833,215.5 217.167,215.5 217.5,215.5C 237.167,215.5 256.833,215.5 276.5,215.5C 276.5,211.5 276.5,207.5 276.5,203.5C 260.991,203.83 245.658,203.496 230.5,202.5 Z"/></g>
</svg>
